# xmcd
#
# Track frame offsets: 
#        150
#        14783
#        29777
#        51009
#        66393
#        83221
#        102025
#        116131
#        134746
#        153893
#        173090
#        184455
#
# Disc length: 2711 seconds
#
# Revision: 5
# Processed by: cddbd v1.5.2PL0 Copyright (c) Steve Scherf et al.
# Submitted via: ExactAudioCopy v1.0b4
#
DISCID=af0a950c
DTITLE=Various Artist - Bossa n' Stones CD2
DYEAR=2006
DGENRE=Bossa Lounge
TTITLE0=Sao Vicente Feat. Ituana - As Tears Go By (Luxury Strings Mix)
TTITLE1=Amazonics - Jumpin' Jack Flash
TTITLE2=Urban Love and Aneka - Beast Of Burden
TTITLE3=Freedom Dub - Emotional Rescue (2 Many Beats Remix)
TTITLE4=Scubba Feat. Dew - Tumbling Dice
TTITLE5=Michelle Simonal - Mixed Emotions
TTITLE6=Groove Da Praia - Honky Tonk Women (Three Knocks Mix)
TTITLE7=Sixth Finger - Paint It Black
TTITLE8=Glambeats Corp. - She's So Cold (Ipanema@7" Mix)
TTITLE9=Banda Do Sul Meets Natasha - It's Only Rock'n Roll (But I Like
TTITLE9=It)
TTITLE10=Corcovado Frequency Feat. Uschi - I'm Free (Wizard Edit)
TTITLE11=Ituana - You Can't Always Get What You Want
EXTD=
EXTT0=
EXTT1=
EXTT2=
EXTT3=
EXTT4=
EXTT5=
EXTT6=
EXTT7=
EXTT8=
EXTT9=
EXTT10=
EXTT11=
PLAYORDER=
